Coordinates
version=1
nRows=17
nColumns=24
inDegrees=yes

Units are S.I. units (second, meters, Newtons, ...)
Angles are in degrees.

endheader
time	pelvis_tilt	pelvis_list	pelvis_rotation	pelvis_tx	pelvis_ty	pelvis_tz	hip_flexion_r	hip_adduction_r	hip_rotation_r	knee_angle_r	ankle_angle_r	subtalar_angle_r	mtp_angle_r	hip_flexion_l	hip_adduction_l	hip_rotation_l	knee_angle_l	ankle_angle_l	subtalar_angle_l	mtp_angle_l	lumbar_extension	lumbar_bending	lumbar_rotation
      0.84133333	      0.92089906	      0.22645015	     -1.49424339	     -0.24512798	      1.02323238	      0.37039759	     -2.69944347	      2.31093220	      0.80417867	    -15.11112628	     10.20589695	     -6.65213227	      2.52356460	     19.42481104	      1.20205909	     -2.27362081	    -46.80282909	      6.92041320	     -9.35355138	     -0.13528648	    -13.26110814	      6.37004142	      4.01418893
      0.84550000	      0.86108700	      0.27371030	     -1.48638876	     -0.24012052	      1.02361937	      0.37040879	     -3.06443220	      2.24592602	      0.76245682	    -14.81850879	      9.91710058	     -6.65085744	      2.54792008	     19.58922951	      1.32194363	     -2.19419979	    -45.37116391	      7.07138684	     -9.31216982	     -0.17180862	    -13.22854477	      6.29292917	      4.06892887
      0.84966667	      0.87042629	      0.30070130	     -1.46079368	     -0.23507950	      1.02406808	      0.37041075	     -3.54205045	      2.20732094	      0.74764831	    -14.44905373	      9.65920142	     -6.71439847	      2.59993784	     19.65787031	      1.42746133	     -2.09128605	    -43.89875133	      7.14835024	     -9.35134737	     -0.23366167	    -13.28128717	      6.23671919	      4.14361600
      0.85383333	      0.83167926	      0.33058242	     -1.43741318	     -0.23005398	      1.02440597	      0.37039543	     -3.93105596	      2.16056666	      0.67950377	    -14.15428000	      9.36009591	     -6.72410375	      2.63859449	     19.76534408	      1.53235073	     -1.99125077	    -42.39687615	      7.19716207	     -9.32141866	     -0.27532963	    -13.26870370	      6.17874295	      4.18562626
      0.85800000	      0.78729406	      0.36336997	     -1.40872948	     -0.22500529	      1.02471286	      0.37036616	     -4.31983805	      2.11116370	      0.61538090	    -13.84932555	      9.08768659	     -6.73672957	      2.68064896	     19.85507473	      1.64426059	     -1.87831867	    -40.84891307	      7.18300131	     -9.33263748	     -0.31622308	    -13.25246838	      6.12649243	      4.22235801
      0.86216667	      0.81442009	      0.38236507	     -1.36581812	     -0.21993845	      1.02509638	      0.37032497	     -4.81049213	      2.08012111	      0.56851322	    -13.49543503	      8.83790284	     -6.77408792	      2.75882424	     19.84113289	      1.75233127	     -1.72970743	    -39.25145613	      7.09847823	     -9.42326401	     -0.37696249	    -13.31850616	      6.08179855	      4.25044346
      0.86633333	      0.76339908	      0.40725750	     -1.32588541	     -0.21488367	      1.02530532	      0.37026441	     -5.18142576	      2.03920420	      0.48118499	    -13.21482489	      8.57596072	     -6.77411009	      2.83803346	     19.90188362	      1.85985878	     -1.59206265	    -37.63755477	      6.99240608	     -9.45187175	     -0.42968864	    -13.30633191	      6.04294554	      4.26790726
      0.87050000	      0.74051962	      0.42005670	     -1.28042419	     -0.20979256	      1.02554032	      0.37020393	     -5.59144499	      2.01262639	      0.38712965	    -12.91918604	      8.31326462	     -6.77861549	      2.94542408	     19.90450060	      1.95499388	     -1.44547957	    -35.97705561	      6.82602915	     -9.52165760	     -0.49041729	    -13.29760071	      6.00997187	      4.27396659
      0.87466667	      0.70097086	      0.42634180	     -1.22920051	     -0.20471516	      1.02568608	      0.37012802	     -5.96813890	      1.99336312	      0.27726526	    -12.65766964	      8.05542857	     -6.77473285	      3.05897768	     19.91303026	      2.04227791	     -1.29185464	    -34.29838405	      6.63637470	     -9.56319097	     -0.54554287	    -13.28301053	      5.98881278	      4.27223972
      0.87883333	      0.65171465	      0.43234382	     -1.17987691	     -0.19961462	      1.02579795	      0.37004541	     -6.32790757	      1.97426614	      0.16413151	    -12.41039607	      7.79387783	     -6.76753698	      3.17624200	     19.90663623	      2.12753116	     -1.13579072	    -32.58103067	      6.40428597	     -9.61015952	     -0.59524233	    -13.25938731	      5.97235950	      4.26680923
      0.88300000	      0.61887010	      0.43217848	     -1.12690210	     -0.19448634	      1.02589644	      0.36996451	     -6.71160933	      1.96343556	      0.04631262	    -12.15380735	      7.54174453	     -6.75608779	      3.31299635	     19.86177725	      2.20307765	     -0.98390448	    -30.83384154	      6.13154999	     -9.66619132	     -0.64395966	    -13.24660015	      5.95804821	      4.25478584
      0.88716667	      0.57032966	      0.41735688	     -1.07257782	     -0.18934840	      1.02592891	      0.36987279	     -7.06852588	      1.96896805	     -0.07286725	    -11.91921937	      7.28977851	     -6.74585843	      3.47008265	     19.81757128	      2.25965090	     -0.83475294	    -29.06986374	      5.83472983	     -9.71040826	     -0.68950903	    -13.21262068	      5.96452109	      4.24153135
      0.89133333	      0.52634119	      0.40506672	     -1.02289404	     -0.18419492	      1.02591673	      0.36977979	     -7.41730815	      1.97078349	     -0.20034876	    -11.71482582	      7.04357524	     -6.72672966	      3.63428417	     19.74850590	      2.31491715	     -0.69490530	    -27.28288078	      5.51783938	     -9.73828076	     -0.72859038	    -13.18853752	      5.96754304	      4.22326499
      0.89550000	      0.49197916	      0.39315830	     -0.97567635	     -0.17901514	      1.02588278	      0.36968124	     -7.77371166	      1.97131502	     -0.33294971	    -11.51824699	      6.79922303	     -6.70012707	      3.80121657	     19.64876926	      2.36624775	     -0.56878565	    -25.47541466	      5.18196746	     -9.75347070	     -0.76060260	    -13.17961265	      5.97845961	      4.20787285
      0.89966667	      0.42059411	      0.34798262	     -0.92347303	     -0.17381601	      1.02572949	      0.36958027	     -8.08383612	      2.01159674	     -0.45239113	    -11.34182868	      6.57954512	     -6.67993048	      4.01338558	     19.58325351	      2.38048739	     -0.43682839	    -23.67954084	      4.82163596	     -9.78186009	     -0.78889224	    -13.10531746	      6.01231448	      4.19146311
      0.90383333	      0.35537637	      0.29992055	     -0.86219835	     -0.16860046	      1.02555117	      0.36942412	     -8.38863752	      2.04924015	     -0.62927968	    -11.18801048	      6.33853674	     -6.57306165	      4.69617926	     19.49384804	      2.39902411	     -0.28394659	    -21.86978023	      4.40203451	     -9.85000037	     -0.82471096	    -13.05052854	      6.08715294	      4.17562788
      0.90800000	      0.32916249	      0.26819073	     -0.85043573	     -0.16334322	      1.02537476	      0.36939973	     -8.72563920	      2.07363385	     -0.70191272	    -11.06410871	      6.13906114	     -6.61635155	      4.88578812	     19.34648658	      2.39818329	     -0.26475601	    -20.06853538	      4.11552524	     -9.70996365	     -0.83255870	    -13.03412708	      6.08262037	      4.17082333
